<?xml version="1.0" encoding="UTF-8"?>
<!DOCTYPE svg PUBLIC "-//W3C//DTD SVG 1.1//EN" "http://www.w3.org/Graphics/SVG/1.1/DTD/svg11.dtd">
<svg version="1.2" width="50.8mm" height="25.4mm" viewBox="0 0 5080 2540" preserveAspectRatio="xMidYMid" fill-rule="evenodd" stroke-width="28.222" stroke-linejoin="round" xmlns="http://www.w3.org/2000/svg" xmlns:ooo="http://xml.openoffice.org/svg/export" xmlns:xlink="http://www.w3.org/1999/xlink" xmlns:presentation="http://sun.com/xmlns/staroffice/presentation" xmlns:smil="http://www.w3.org/2001/SMIL20/" xmlns:anim="urn:oasis:names:tc:opendocument:xmlns:animation:1.0" xml:space="preserve">
 <defs class="ClipPathGroup">
  <clipPath id="presentation_clip_path" clipPathUnits="userSpaceOnUse">
   <rect x="0" y="0" width="5080" height="2540"/>
  </clipPath>
  <clipPath id="presentation_clip_path_shrink" clipPathUnits="userSpaceOnUse">
   <rect x="5" y="2" width="5070" height="2535"/>
  </clipPath>
 </defs>
 <defs class="TextShapeIndex">
  <g ooo:slide="id1" ooo:id-list="id3 id4"/>
 </defs>
 <defs class="EmbeddedBulletChars">
  <g id="bullet-char-template-57356" transform="scale(0.00048828125,-0.00048828125)">
   <path d="M 580,1141 L 1163,571 580,0 -4,571 580,1141 Z"/>
  </g>
  <g id="bullet-char-template-57354" transform="scale(0.00048828125,-0.00048828125)">
   <path d="M 8,1128 L 1137,1128 1137,0 8,0 8,1128 Z"/>
  </g>
  <g id="bullet-char-template-10146" transform="scale(0.00048828125,-0.00048828125)">
   <path d="M 174,0 L 602,739 174,1481 1456,739 174,0 Z M 1358,739 L 309,1346 659,739 1358,739 Z"/>
  </g>
  <g id="bullet-char-template-10132" transform="scale(0.00048828125,-0.00048828125)">
   <path d="M 2015,739 L 1276,0 717,0 1260,543 174,543 174,936 1260,936 717,1481 1274,1481 2015,739 Z"/>
  </g>
  <g id="bullet-char-template-10007" transform="scale(0.00048828125,-0.00048828125)">
   <path d="M 0,-2 C -7,14 -16,27 -25,37 L 356,567 C 262,823 215,952 215,954 215,979 228,992 255,992 264,992 276,990 289,987 310,991 331,999 354,1012 L 381,999 492,748 772,1049 836,1024 860,1049 C 881,1039 901,1025 922,1006 886,937 835,863 770,784 769,783 710,716 594,584 L 774,223 C 774,196 753,168 711,139 L 727,119 C 717,90 699,76 672,76 641,76 570,178 457,381 L 164,-76 C 142,-110 111,-127 72,-127 30,-127 9,-110 8,-76 1,-67 -2,-52 -2,-32 -2,-23 -1,-13 0,-2 Z"/>
  </g>
  <g id="bullet-char-template-10004" transform="scale(0.00048828125,-0.00048828125)">
   <path d="M 285,-33 C 182,-33 111,30 74,156 52,228 41,333 41,471 41,549 55,616 82,672 116,743 169,778 240,778 293,778 328,747 346,684 L 369,508 C 377,444 397,411 428,410 L 1163,1116 C 1174,1127 1196,1133 1229,1133 1271,1133 1292,1118 1292,1087 L 1292,965 C 1292,929 1282,901 1262,881 L 442,47 C 390,-6 338,-33 285,-33 Z"/>
  </g>
  <g id="bullet-char-template-9679" transform="scale(0.00048828125,-0.00048828125)">
   <path d="M 813,0 C 632,0 489,54 383,161 276,268 223,411 223,592 223,773 276,916 383,1023 489,1130 632,1184 813,1184 992,1184 1136,1130 1245,1023 1353,916 1407,772 1407,592 1407,412 1353,268 1245,161 1136,54 992,0 813,0 Z"/>
  </g>
  <g id="bullet-char-template-8226" transform="scale(0.00048828125,-0.00048828125)">
   <path d="M 346,457 C 273,457 209,483 155,535 101,586 74,649 74,723 74,796 101,859 155,911 209,963 273,989 346,989 419,989 480,963 531,910 582,859 608,796 608,723 608,648 583,586 532,535 482,483 420,457 346,457 Z"/>
  </g>
  <g id="bullet-char-template-8211" transform="scale(0.00048828125,-0.00048828125)">
   <path d="M -4,459 L 1135,459 1135,606 -4,606 -4,459 Z"/>
  </g>
  <g id="bullet-char-template-61548" transform="scale(0.00048828125,-0.00048828125)">
   <path d="M 173,740 C 173,903 231,1043 346,1159 462,1274 601,1332 765,1332 928,1332 1067,1274 1183,1159 1299,1043 1357,903 1357,740 1357,577 1299,437 1183,322 1067,206 928,148 765,148 601,148 462,206 346,322 231,437 173,577 173,740 Z"/>
  </g>
 </defs>
 <g>
  <g id="id2" class="Master_Slide">
   <g id="bg-id2" class="Background"/>
   <g id="bo-id2" class="BackgroundObjects"/>
  </g>
 </g>
 <g class="SlideGroup">
  <g>
   <g id="container-id1">
    <g id="id1" class="Slide" clip-path="url(#presentation_clip_path)">
     <g class="Page">
      <g class="Graphic">
       <title>epfl-logo-new
       </title>
       <g id="id3">
        <rect class="BoundingBox" stroke="none" fill="none" x="7667" y="9572" width="4826" height="1402"/>
        <defs>
         <clipPath id="clip_path_1" clipPathUnits="userSpaceOnUse">
          <path d="M 7667,9572 L 12492,9572 12492,10973 7667,10973 7667,9572 Z"/>
         </clipPath>
        </defs>
        <g clip-path="url(#clip_path_1)">
         <path fill="rgb(255,0,0)" stroke="none" d="M 7667,10143 L 7969,10143 7969,9831 8681,9831 8681,9572 7667,9572 7667,10143 Z"/>
         <path fill="rgb(255,0,0)" stroke="none" d="M 7667,10973 L 8681,10973 8681,10714 7969,10714 7969,10402 7667,10402 7667,10973 Z"/>
         <path fill="rgb(255,0,0)" stroke="none" d="M 7969,10143 L 8620,10143 8620,10402 7969,10402 7969,10143 Z"/>
         <path fill="rgb(255,0,0)" stroke="none" d="M 9860,9639 C 9838,9627 9815,9616 9792,9607 L 9792,9607 C 9725,9584 9654,9572 9583,9572 9578,9572 9572,9572 9567,9572 L 8940,9572 8940,10973 9243,10973 9243,10402 9567,10402 C 9572,10402 9577,10402 9582,10402 9653,10402 9724,10390 9791,10367 9815,10358 9838,10347 9860,10334 9890,10317 9917,10297 9942,10273 9964,10251 9984,10226 10000,10198 10010,10180 10019,10161 10026,10141 10044,10092 10053,10040 10053,9988 10053,9935 10044,9883 10026,9834 10019,9814 10010,9794 9999,9775 9983,9748 9964,9723 9942,9701 9917,9677 9890,9656 9860,9639 Z M 9730,10067 C 9718,10083 9703,10097 9685,10107 9680,10110 9675,10113 9671,10115 9643,10126 9614,10134 9584,10137 9551,10141 9518,10143 9485,10143 9484,10143 9483,10143 9482,10143 L 9243,10143 9243,9831 9482,9831 C 9483,9831 9484,9831 9485,9831 9518,9831 9551,9833 9584,9837 9614,9840 9643,9848 9671,9860 9676,9862 9681,9864 9686,9867 9703,9877 9718,9891 9730,9907 9732,9910 9734,9912 9735,9915 9747,9935 9753,9958 9753,9981 9753,9983 9753,9985 9753,9986 9753,9988 9753,9991 9753,9993 9753,10016 9747,10039 9736,10059 9734,10062 9732,10064 9730,10067 Z"/>
         <path fill="rgb(255,0,0)" stroke="none" d="M 11780,10714 L 11780,9572 11477,9572 11477,10973 12491,10973 12491,10714 11780,10714 Z"/>
         <path fill="rgb(255,0,0)" stroke="none" d="M 10244,10143 L 10546,10143 10546,9831 11258,9831 11258,9572 10244,9572 10244,10143 Z"/>
         <path fill="rgb(255,0,0)" stroke="none" d="M 10244,10402 L 10546,10402 10546,10973 10244,10973 10244,10402 Z"/>
         <path fill="rgb(255,0,0)" stroke="none" d="M 10546,10143 L 11197,10143 11197,10402 10546,10402 10546,10143 Z"/>
        </g>
       </g>
      </g>
      <g class="Graphic">
       <title>epfl-logo-new
       </title>
       <g id="id4">
        <rect class="BoundingBox" stroke="none" fill="none" x="147" y="765" width="4811" height="1386"/>
        <defs>
         <clipPath id="clip_path_2" clipPathUnits="userSpaceOnUse">
          <path d="M 147,765 L 4957,765 4957,2150 147,2150 147,765 Z"/>
         </clipPath>
        </defs>
        <g clip-path="url(#clip_path_2)">
         <path fill="rgb(255,0,0)" stroke="none" d="M 147,1329 L 448,1329 448,1021 1158,1021 1158,765 147,765 147,1329 Z"/>
         <path fill="rgb(255,0,0)" stroke="none" d="M 147,2150 L 1158,2150 1158,1894 448,1894 448,1586 147,1586 147,2150 Z"/>
         <path fill="rgb(255,0,0)" stroke="none" d="M 448,1329 L 1097,1329 1097,1586 448,1586 448,1329 Z"/>
         <path fill="rgb(255,0,0)" stroke="none" d="M 2333,831 C 2311,819 2289,808 2265,800 L 2265,800 C 2198,777 2128,765 2057,765 2052,765 2046,765 2041,765 L 1416,765 1416,2150 1718,2150 1718,1586 2041,1586 C 2046,1586 2051,1586 2056,1586 2127,1586 2197,1574 2264,1551 2288,1542 2311,1531 2334,1519 2363,1502 2390,1482 2415,1458 2437,1436 2457,1411 2472,1384 2483,1366 2492,1347 2499,1328 2516,1279 2525,1228 2525,1176 2525,1124 2516,1073 2499,1024 2492,1004 2483,984 2472,966 2456,939 2437,914 2415,892 2390,869 2363,848 2333,831 Z M 2204,1254 C 2192,1271 2176,1284 2159,1294 2154,1297 2149,1299 2144,1301 2117,1313 2088,1321 2058,1324 2025,1328 1992,1329 1959,1329 1958,1329 1957,1329 1956,1329 L 1718,1329 1718,1021 1957,1021 C 1958,1021 1959,1021 1960,1021 1993,1021 2026,1023 2058,1027 2088,1030 2117,1037 2145,1049 2150,1051 2155,1054 2159,1057 2177,1067 2192,1080 2204,1096 2206,1099 2207,1101 2209,1104 2221,1124 2227,1147 2227,1169 2227,1171 2227,1173 2227,1174 2227,1177 2227,1179 2227,1181 2227,1204 2221,1226 2209,1246 2207,1249 2206,1252 2204,1254 Z"/>
         <path fill="rgb(255,0,0)" stroke="none" d="M 4247,1894 L 4247,765 3945,765 3945,2150 4956,2150 4956,1894 4247,1894 Z"/>
         <path fill="rgb(255,0,0)" stroke="none" d="M 2716,1329 L 3017,1329 3017,1021 3727,1021 3727,765 2716,765 2716,1329 Z"/>
         <path fill="rgb(255,0,0)" stroke="none" d="M 2716,1586 L 3017,1586 3017,2150 2716,2150 2716,1586 Z"/>
         <path fill="rgb(255,0,0)" stroke="none" d="M 3017,1329 L 3666,1329 3666,1586 3017,1586 3017,1329 Z"/>
        </g>
       </g>
      </g>
     </g>
    </g>
   </g>
  </g>
 </g>
</svg>